<?xml version="1.0" encoding="UTF-8" standalone="no"?>
<svg
   xmlns:dc="http://purl.org/dc/elements/1.1/"
   xmlns:cc="http://creativecommons.org/ns#"
   xmlns:rdf="http://www.w3.org/1999/02/22-rdf-syntax-ns#"
   xmlns:svg="http://www.w3.org/2000/svg"
   xmlns="http://www.w3.org/2000/svg"
   xmlns:sodipodi="http://sodipodi.sourceforge.net/DTD/sodipodi-0.dtd"
   xmlns:inkscape="http://www.inkscape.org/namespaces/inkscape"
   version="1.1"
   id="svg2"
   xml:space="preserve"
   width="616"
   height="452"
   viewBox="0 0 616 452"
   sodipodi:docname="ldglogo.pdf"><metadata
     id="metadata8"><rdf:RDF><cc:Work
         rdf:about=""><dc:format>image/svg+xml</dc:format><dc:type
           rdf:resource="http://purl.org/dc/dcmitype/StillImage" /></cc:Work></rdf:RDF></metadata><defs
     id="defs6"><clipPath
       clipPathUnits="userSpaceOnUse"
       id="clipPath20"><path
         d="M 0,0 H 462 V 339 H 0 Z"
         id="path18" /></clipPath></defs><sodipodi:namedview
     pagecolor="#ffffff"
     bordercolor="#666666"
     borderopacity="1"
     objecttolerance="10"
     gridtolerance="10"
     guidetolerance="10"
     inkscape:pageopacity="0"
     inkscape:pageshadow="2"
     inkscape:window-width="640"
     inkscape:window-height="480"
     id="namedview4" /><g
     id="g10"
     inkscape:groupmode="layer"
     inkscape:label="ldglogo"
     transform="matrix(1.3333333,0,0,-1.3333333,0,452)"><g
       id="g12" /><g
       id="g14"><g
         id="g16"
         clip-path="url(#clipPath20)"><path
           d="M 77.73261,282.3438 H 384.2674 c 22.8106,0 36.4969,0 45.6211,-3.8093 13.1534,-4.7874 23.5148,-15.1488 28.3023,-28.3022 C 462,241.1081 462,227.4217 462,204.6111 v -70.2222 c 0,-22.8106 0,-36.49696 -3.8092,-45.62119 C 453.4033,75.61434 443.0419,65.25293 429.8885,60.46549 420.7643,56.65625 407.078,56.65625 384.2674,56.65625 H 77.73261 c -22.81057,0 -36.49692,0 -45.62115,3.80924 C 18.95809,65.25293 8.596678,75.61434 3.809244,88.76771 0,97.89194 0,111.5783 0,134.3889 v 70.2222 c 0,22.8106 0,36.497 3.809244,45.6212 4.787434,13.1534 15.148846,23.5148 28.302216,28.3022 9.12423,3.8093 22.81058,3.8093 45.62115,3.8093 z"
           style="fill:#3872b2;fill-opacity:1;fill-rule:nonzero;stroke:none"
           id="path22" /><g
           id="g24"
           transform="translate(29.82812,91.43164)"><text
             transform="scale(1,-1)"
             style="font-variant:normal;font-weight:500;font-size:200px;font-family:Futura;-inkscape-font-specification:Futura-Medium;writing-mode:lr-tb;fill:#ffffff;fill-opacity:1;fill-rule:nonzero;stroke:none"
             id="text28"><tspan
               x="0 88.68 233.96001"
               y="0"
               sodipodi:role="line"
               id="tspan26">LDG</tspan></text></g></g></g></g></svg>
