<?xml version="1.0" encoding="UTF-8" standalone="no"?>
<svg
   xmlns:dc="http://purl.org/dc/elements/1.1/"
   xmlns:cc="http://creativecommons.org/ns#"
   xmlns:rdf="http://www.w3.org/1999/02/22-rdf-syntax-ns#"
   xmlns:svg="http://www.w3.org/2000/svg"
   xmlns="http://www.w3.org/2000/svg"
   xmlns:sodipodi="http://sodipodi.sourceforge.net/DTD/sodipodi-0.dtd"
   xmlns:inkscape="http://www.inkscape.org/namespaces/inkscape"
   version="1.1"
   id="svg2"
   xml:space="preserve"
   width="341.33334"
   height="341.33334"
   viewBox="0 0 341.33334 341.33334"
   sodipodi:docname="icons_1.pdf"><metadata
     id="metadata8"><rdf:RDF><cc:Work
         rdf:about=""><dc:format>image/svg+xml</dc:format><dc:type
           rdf:resource="http://purl.org/dc/dcmitype/StillImage" /></cc:Work></rdf:RDF></metadata><defs
     id="defs6"><clipPath
       clipPathUnits="userSpaceOnUse"
       id="clipPath20"><path
         d="M 0,0 H 256 V 256 H 0 Z"
         id="path18" /></clipPath></defs><sodipodi:namedview
     pagecolor="#ffffff"
     bordercolor="#666666"
     borderopacity="1"
     objecttolerance="10"
     gridtolerance="10"
     guidetolerance="10"
     inkscape:pageopacity="0"
     inkscape:pageshadow="2"
     inkscape:window-width="640"
     inkscape:window-height="480"
     id="namedview4" /><g
     id="g10"
     inkscape:groupmode="layer"
     inkscape:label="icons_1"
     transform="matrix(1.3333333,0,0,-1.3333333,0,341.33333)"><g
       id="g12" /><g
       id="g14"><g
         id="g16"
         clip-path="url(#clipPath20)"><path
           d="m 231.0963,185.1766 c 20.5568,-20.5568 20.5568,-53.8859 0,-74.4427 -20.5568,-20.55682 -53.8859,-20.55682 -74.4427,0 -20.5568,20.5568 -20.5568,53.8859 0,74.4427 20.5568,20.5569 53.8859,20.5569 74.4427,0 z"
           style="fill:#ffffff;fill-opacity:1;fill-rule:nonzero;stroke:none"
           id="path22" /><g
           id="g24"
           transform="matrix(1,0,0,-1,141.236,200.5942)"><path
             d="m 89.86037,15.4176 c 20.55683,20.5568 20.55683,53.88596 0,74.44277 -20.55681,20.55683 -53.88597,20.55683 -74.44277,0 -20.5568,-20.55681 -20.5568,-53.88597 0,-74.44277 20.5568,-20.5568 53.88596,-20.5568 74.44277,0 z"
             style="fill:none;stroke:#000000;stroke-width:12;stroke-linecap:butt;stroke-linejoin:miter;stroke-miterlimit:4;stroke-dasharray:none;stroke-opacity:1"
             id="path26" /></g><g
           id="g28"
           transform="translate(119.5117,91.34961)"><text
             transform="scale(1,-1)"
             style="font-variant:normal;font-weight:normal;font-size:200px;font-family:'Apple Symbols';-inkscape-font-specification:AppleSymbols;writing-mode:lr-tb;fill:#000000;fill-opacity:1;fill-rule:nonzero;stroke:none"
             id="text32"><tspan
               x="0"
               y="0"
               id="tspan30">⊕</tspan></text></g><g
           id="g34"
           transform="matrix(0.9999648,0,0,0.9999648,-4.851759,-533.7188)"><text
             transform="matrix(1,0,0,-1,0,543.5896)"
             style="font-style:italic;font-variant:normal;font-size:571px;font-family:STIXGeneral;-inkscape-font-specification:STIXGeneral-Italic;writing-mode:lr-tb;fill:#5e5e5e;fill-opacity:1;fill-rule:nonzero;stroke:none"
             id="text38"><tspan
               x="0"
               y="0"
               id="tspan36">τ</tspan></text></g><g
           id="g40"
           transform="matrix(0.9999648,0,0,0.9999648,-4.851759,-533.7188)"><text
             transform="matrix(1,0,0,-1,0,543.5896)"
             style="font-style:italic;font-variant:normal;font-size:571px;font-family:STIXGeneral;-inkscape-font-specification:STIXGeneral-Italic;writing-mode:lr-tb;fill:#5e5e5e;fill-opacity:1;fill-rule:nonzero;stroke:none"
             id="text44"><tspan
               x="0"
               y="0"
               id="tspan42">τ</tspan></text></g></g></g></g></svg>
