<?xml version="1.0" encoding="UTF-8" standalone="no"?>
<svg
   xmlns:dc="http://purl.org/dc/elements/1.1/"
   xmlns:cc="http://creativecommons.org/ns#"
   xmlns:rdf="http://www.w3.org/1999/02/22-rdf-syntax-ns#"
   xmlns:svg="http://www.w3.org/2000/svg"
   xmlns="http://www.w3.org/2000/svg"
   xmlns:sodipodi="http://sodipodi.sourceforge.net/DTD/sodipodi-0.dtd"
   xmlns:inkscape="http://www.inkscape.org/namespaces/inkscape"
   version="1.1"
   id="svg2"
   xml:space="preserve"
   width="341.33334"
   height="341.33334"
   viewBox="0 0 341.33334 341.33334"
   sodipodi:docname="icons_4.pdf"><metadata
     id="metadata8"><rdf:RDF><cc:Work
         rdf:about=""><dc:format>image/svg+xml</dc:format><dc:type
           rdf:resource="http://purl.org/dc/dcmitype/StillImage" /></cc:Work></rdf:RDF></metadata><defs
     id="defs6"><clipPath
       clipPathUnits="userSpaceOnUse"
       id="clipPath20"><path
         d="M 0,0 H 256 V 256 H 0 Z"
         id="path18" /></clipPath><clipPath
       clipPathUnits="userSpaceOnUse"
       id="clipPath38"><path
         d="m 22.42671,0 h 233.5733 V 256 H 22.42671 Z"
         id="path36" /></clipPath></defs><sodipodi:namedview
     pagecolor="#ffffff"
     bordercolor="#666666"
     borderopacity="1"
     objecttolerance="10"
     gridtolerance="10"
     guidetolerance="10"
     inkscape:pageopacity="0"
     inkscape:pageshadow="2"
     inkscape:window-width="640"
     inkscape:window-height="480"
     id="namedview4" /><g
     id="g10"
     inkscape:groupmode="layer"
     inkscape:label="icons_4"
     transform="matrix(1.3333333,0,0,-1.3333333,0,341.33333)"><g
       id="g12" /><g
       id="g14"><g
         id="g16"
         clip-path="url(#clipPath20)"><path
           d="m 223.6789,223.0662 c 27.9409,-27.9409 27.9409,-73.242 0,-101.1829 -27.9409,-27.94092 -73.242,-27.94092 -101.1829,0 -27.94092,27.9409 -27.94092,73.242 0,101.1829 27.9409,27.9409 73.242,27.9409 101.1829,0 z"
           style="fill:#ffffff;fill-opacity:1;fill-rule:nonzero;stroke:none"
           id="path22" /><g
           id="g24"
           transform="matrix(1,0,0,-1,101.5403,244.0219)"><path
             d="m 122.1386,20.95567 c 27.9409,27.94089 27.9409,73.24202 0,101.18293 -27.94091,27.9409 -73.24204,27.9409 -101.18293,0 -27.940893,-27.94091 -27.940893,-73.24204 0,-101.18293 27.94089,-27.940893 73.24202,-27.940893 101.18293,0 z"
             style="fill:none;stroke:#000000;stroke-width:12;stroke-linecap:butt;stroke-linejoin:miter;stroke-miterlimit:4;stroke-dasharray:none;stroke-opacity:1"
             id="path26" /></g><g
           id="g28"
           transform="matrix(1,0,0,-1,13.05925,117.5828)"><path
             d="M 0,105.5093 105.2639,0"
             style="fill:none;stroke:#5e5e5e;stroke-width:30;stroke-linecap:butt;stroke-linejoin:miter;stroke-miterlimit:4;stroke-dasharray:none;stroke-opacity:1"
             id="path30" /></g></g></g><g
       id="g32"><g
         id="g34"
         clip-path="url(#clipPath38)"><g
           id="g40"
           transform="translate(79.70821,99.93701)"><text
             transform="scale(1,-1)"
             style="font-variant:normal;font-weight:normal;font-size:250px;font-family:'Apple Symbols';-inkscape-font-specification:AppleSymbols;writing-mode:lr-tb;fill:#000000;fill-opacity:1;fill-rule:nonzero;stroke:none"
             id="text44"><tspan
               x="0"
               y="0"
               id="tspan42">⊖</tspan></text></g></g></g></g></svg>
